<?xml version="1.0" standalone="no"?>
<!DOCTYPE svg PUBLIC "-//W3C//DTD SVG 20010904//EN"
 "http://www.w3.org/TR/2001/REC-SVG-20010904/DTD/svg10.dtd">
<svg version="1.0" xmlns="http://www.w3.org/2000/svg"
 width="300.000000pt" height="300.000000pt" viewBox="0 0 300.000000 300.000000"
 preserveAspectRatio="xMidYMid meet">
<metadata>
Created by potrace 1.10, written by Peter Selinger 2001-2011
</metadata>
<g transform="translate(0.000000,300.000000) scale(0.100000,-0.100000)"
fill="#000000" stroke="none">
<path d="M1514 2490 c-44 -17 -102 -120 -135 -235 -15 -55 -19 -213 -6 -260 8
-28 7 -28 -30 14 -35 39 -40 42 -65 32 -16 -6 -30 -21 -34 -35 -10 -41 20 -80
104 -134 44 -29 94 -68 111 -87 37 -42 71 -107 71 -134 0 -27 18 -37 27 -15 6
15 -4 52 -32 117 -6 15 -1 13 30 -7 42 -29 124 -56 168 -56 44 0 96 29 113 63
40 76 -33 177 -126 177 l-32 0 26 30 c54 65 55 154 2 225 -40 53 -56 93 -72
180 -23 120 -53 152 -120 125z m77 -80 c9 -30 21 -81 27 -112 8 -40 24 -75 53
-118 36 -50 43 -67 43 -108 0 -76 -31 -117 -122 -160 -86 -41 -84 -52 3 -22
32 11 74 20 94 20 106 0 174 -134 91 -178 -35 -18 -127 -9 -181 18 -153 78
-211 175 -210 355 0 175 87 372 161 363 21 -3 28 -12 41 -58z m-217 -481 c30
-43 52 -79 48 -79 -18 1 -128 88 -141 112 -12 21 -13 29 -2 41 19 24 34 12 95
-74z"/>
<path d="M1183 2373 c-16 -6 -17 -39 -1 -49 6 -4 17 1 24 11 11 15 16 16 29 5
31 -26 46 -73 52 -161 9 -129 26 -127 21 2 -3 86 -8 111 -27 146 -27 46 -60
62 -98 46z"/>
<path d="M1090 2198 c-34 -18 -41 -68 -10 -68 16 0 21 5 18 23 -2 17 2 23 24
25 38 5 84 -22 118 -70 35 -47 41 -27 8 22 -44 65 -110 93 -158 68z"/>
<path d="M430 1508 c-63 -24 -94 -90 -70 -149 7 -16 38 -53 70 -82 70 -64 91
-96 92 -138 2 -57 -68 -90 -119 -54 -28 19 -34 48 -17 81 18 35 19 34 -19 34
-42 0 -67 -26 -67 -69 0 -69 44 -101 140 -101 101 0 160 44 160 120 0 45 -20
77 -94 148 -69 65 -85 98 -70 141 20 57 112 28 99 -31 -6 -24 -3 -28 14 -28
28 0 55 43 47 75 -12 49 -102 78 -166 53z"/>
<path d="M1084 1506 c-46 -20 -74 -62 -74 -109 0 -41 14 -59 133 -165 20 -19
40 -45 43 -59 22 -87 -92 -139 -132 -61 -14 27 -14 32 1 54 14 22 14 25 0 30
-49 19 -94 -37 -74 -93 18 -49 55 -68 136 -68 70 0 74 1 108 35 71 71 55 146
-48 226 -34 26 -70 57 -79 68 -37 45 -11 106 45 106 31 0 51 -30 44 -66 -5
-30 22 -33 46 -6 33 36 15 86 -38 108 -42 17 -71 17 -111 0z"/>
<path d="M1785 1508 c-54 -20 -83 -47 -111 -104 -22 -46 -28 -71 -28 -133 -1
-98 21 -159 77 -206 36 -31 47 -35 99 -35 89 0 138 33 177 120 24 52 28 165 9
221 -36 108 -136 169 -223 137z m112 -75 c33 -40 46 -103 41 -192 -4 -65 -10
-87 -31 -120 -67 -101 -165 -42 -183 109 -15 129 46 250 118 236 18 -3 43 -18
55 -33z"/>
<path d="M749 1503 c-1 -5 0 -18 1 -30 2 -30 -108 -384 -126 -404 -22 -25 -17
-29 36 -29 47 0 50 1 45 23 -3 12 1 45 8 72 l13 50 64 0 64 0 17 -67 c29 -115
81 -175 207 -241 227 -119 544 -119 867 -1 63 24 80 26 168 20 75 -4 97 -2 94
7 -2 7 -28 18 -58 26 -64 16 -193 4 -299 -29 -99 -30 -292 -60 -383 -60 -147
0 -321 49 -419 116 -51 36 -86 94 -105 172 -70 302 -83 348 -104 365 -21 17
-88 24 -90 10z m76 -171 c10 -45 16 -84 14 -86 -6 -6 -99 -14 -99 -9 0 3 9 35
19 71 11 37 22 80 26 96 9 41 19 23 40 -72z"/>
<path d="M1260 1495 c0 -5 12 -21 25 -34 14 -13 25 -29 25 -35 0 -7 22 -90 49
-186 52 -182 75 -225 108 -204 10 6 47 96 88 217 40 114 79 215 88 225 10 10
17 22 17 25 0 6 -90 -2 -98 -8 -2 -2 -5 -21 -7 -43 -3 -40 -50 -210 -78 -287
-18 -49 -17 -52 -62 155 -20 91 -39 168 -43 172 -12 11 -112 14 -112 3z"/>
<path d="M2040 1496 c-6 -6 -10 -28 -10 -50 0 -38 0 -39 20 -21 10 9 40 20 65
22 l45 6 -1 -69 c-2 -120 -15 -308 -23 -326 -7 -16 -2 -18 47 -18 53 0 79 11
57 25 -6 4 -10 78 -10 196 l0 189 29 0 c15 0 40 -9 53 -20 14 -10 27 -18 29
-15 2 2 3 23 1 47 l-4 43 -144 0 c-80 0 -149 -4 -154 -9z"/>
<path d="M2384 1498 c-3 -5 0 -15 6 -23 15 -19 6 -375 -10 -406 -14 -25 2 -31
61 -27 34 2 43 7 39 18 -2 8 -6 60 -8 114 l-3 99 71 -6 c40 -3 74 -8 76 -10 5
-4 -10 -172 -17 -197 -3 -12 7 -16 46 -18 l50 -3 0 230 0 229 -45 4 c-57 6
-64 2 -45 -25 10 -14 15 -46 15 -94 l0 -73 -72 4 -73 5 0 88 0 88 -43 6 c-24
3 -45 2 -48 -3z"/>
</g>
</svg>
