<svg width="101" height="140" viewBox="0 0 101 140" fill="none" xmlns="http://www.w3.org/2000/svg">
<path d="M72.0929 101.041C70.804 101.797 69.2785 102.804 67.703 104.001M67.703 104.001C61.8054 108.484 55.2077 115.633 57.7016 122.219C64.141 122.611 67.0523 110.237 67.703 104.001ZM67.703 104.001C66.7329 84.0151 56.399 43.4734 22.8239 41.1952C19.6886 41.6836 14.3685 46.4156 18.1699 61.437C18.5461 62.4304 19.0272 64.8083 17.9421 66.3725C16.5856 68.3279 14.2044 72.7683 18.2833 78.694C18.8146 80.3276 19.6524 84.178 18.7533 86.5106C18.6129 90.4081 21.0687 98.9231 32.0148 101.803C45.6975 105.402 50.4302 100.595 49.5342 98.5755C48.6383 96.5557 39.0297 92.9862 29.1981 100.248C23.0513 103.974 12.1576 114.015 17.7572 124.371C19.559 127.052 25.4805 131.406 34.7516 127.371C46.3405 122.327 54.7119 111.555 54.3755 105.13" stroke="black" stroke-width="0.883828"/>
<path d="M75.5035 100.012C76.8715 98.6636 80.0183 96.1526 81.6618 96.8932" stroke="black" stroke-width="0.883828"/>
<path d="M73.9794 98.7539C75.3029 96.9421 78.3141 93.3116 79.7715 93.2839" stroke="black" stroke-width="0.883828"/>
<path d="M69.8363 95.0811C76.0956 80.3474 86.2674 57.1421 73.883 20.2864C71.7263 15.8607 66.1082 7.16277 60.8885 7.77645C55.6688 8.39014 55.2945 12.385 55.7597 14.3058C55.8059 16.7347 55.6863 21.7254 54.8387 22.256C53.7793 22.9193 50.9674 27.2607 50.6405 32.6269C51.2378 33.9734 52.373 36.9248 52.1354 37.9584C51.8383 39.2505 51.3778 43.2256 53.9321 47.8938C56.4863 52.5621 63.7533 68.2896 62.4957 69.8143" stroke="black" stroke-width="0.883828"/>
</svg>
