<svg width="42" height="79" viewBox="0 0 42 79" fill="none" xmlns="http://www.w3.org/2000/svg">
<path d="M0.5 55.4068C1.26605 56.1072 2.17274 57.0434 3.0645 58.125M3.0645 58.125C5.86434 61.5207 8.51706 66.3496 6.20813 69.813C4.4748 69.0882 1.4194 65.7358 3.0645 58.125ZM3.0645 58.125C4.03361 48.3396 15.9935 26.8661 35.2924 24.9634C37.4669 25.3258 41.5985 27.1379 40.7287 31.487C40.6381 32.6649 40.0764 35.5099 38.5542 37.4669C36.6515 39.9133 38.0106 42.9033 38.2824 43.1751C38.5542 43.4469 38.2824 46.7087 37.4669 47.2523C36.6515 47.796 35.0206 50.5141 35.0206 50.7859C34.6582 52.145 33.9877 54.8632 34.2052 54.8632C34.477 54.8632 31.7588 60.2995 27.1379 60.5713H26.5943M26.5943 60.5713C23.7856 57.9437 17.4069 53.5584 14.3626 57.0377C15.3593 59.031 19.2009 62.5284 26.5943 60.5713ZM26.5943 60.5713C29.7655 63.5613 34.7488 71.0634 29.3125 77.1521C22.5171 81.2293 9.19811 69.813 10.5572 59.7558M2.67453 51.8732C-1.40271 37.4669 3.48997 3.21816 19.5271 0.5C20.705 0.771816 22.8976 2.07653 22.2453 5.12087C21.5929 8.16521 21.611 9.65113 21.7016 10.0136L23.0607 13.2753C23.1513 14.4532 23.0063 17.0808 21.7016 18.168C21.3392 18.9835 20.6687 20.6144 20.8862 20.6144C21.158 20.6144 20.0707 24.6916 18.9835 25.2352C18.0774 26.5037 16.1566 29.095 15.7217 29.3125C15.1781 29.5843 9.46992 38.0106 10.5572 37.4669" stroke="black" stroke-width="0.543632"/>
</svg>
