<svg width="89" height="87" viewBox="0 0 89 87" fill="none" xmlns="http://www.w3.org/2000/svg">
<path d="M88.8539 39.2285C87.0961 38.6967 85.2299 38.4223 83.3564 38.2675C84.732 37.3611 86.0293 36.3275 87.2384 35.1941C87.3602 35.0797 87.3635 34.8342 87.152 34.8287C85.545 34.7873 83.9639 34.5819 82.3851 34.388C82.8009 34.0901 83.2245 33.6365 83.5461 33.3663C84.9011 32.2274 86.2207 30.9414 87.2531 29.4936C87.3644 29.3378 87.2938 29.0446 87.0596 29.1287C84.8992 29.8442 82.5082 29.6449 80.2644 29.7768C81.9405 28.4782 84.7915 26.0437 84.0188 23.6838C83.9396 23.4728 83.8778 23.3418 83.6794 23.2504C83.0661 22.9682 81.9284 23.1116 81.2781 23.1024C80.7794 23.0955 80.2813 23.1369 79.7825 23.1543C80.883 21.4196 81.9393 19.5723 82.4103 17.5527C82.4526 17.3721 82.2553 17.322 82.1229 17.3459C79.8229 17.7591 77.3661 18.357 74.9834 19.2142C74.9793 19.2128 74.9761 19.2096 74.972 19.2082C75.4321 18.3524 75.7473 17.3252 76.0313 16.4689C76.571 14.8429 76.9893 13.0674 76.9849 11.3411C76.9844 11.1569 76.7305 11.1716 76.623 11.2184C74.6519 12.0765 72.5911 13.123 70.6227 14.3598C71.162 12.9205 72.3898 9.67185 71.7404 8.26733C71.5618 7.88171 71.3773 7.83117 71.1338 7.9387C68.9112 9.41766 66.9871 11.3857 65.1826 13.3689C65.0426 11.0759 64.6811 8.79564 64.1441 6.61917C64.0897 6.39811 63.6652 6.42661 63.5995 6.62332C62.9709 8.50066 62.2447 10.3346 61.4156 12.1353C61.7309 9.71002 61.8424 7.01535 60.7707 4.92324C60.4853 4.3662 59.7235 3.28614 58.9436 3.38313C58.7854 3.40289 58.627 3.5109 58.4713 3.64555C56.9431 5.30602 55.7098 7.01392 54.5532 8.92549C54.5172 8.58537 54.4315 8.17359 54.4305 7.92585C54.4278 7.14681 54.3877 6.36642 54.3647 5.58692L54.1656 5.41919C52.0363 5.39207 50.6695 7.40973 49.9347 9.25042C49.846 8.22505 49.5067 7.09535 49.2596 6.2074C48.8263 4.64887 48.2432 3.03246 47.3493 1.66929C47.2211 1.47348 46.9546 1.58563 46.8501 1.74419C46.085 2.90561 45.3294 4.15204 44.628 5.45824C43.9609 3.50889 43.0175 1.58302 41.6783 0L41.2127 0.121343C40.341 1.92389 39.5152 3.9025 38.8496 5.96104C37.8734 4.43333 36.8063 2.96534 35.6296 1.61965C35.4634 1.42984 35.1667 1.66192 35.1827 1.87611C35.2965 3.39005 35.4667 4.90396 35.6648 6.4147C33.7012 4.41617 31.3078 2.94976 28.6309 2.13305C28.3542 2.04709 28.2861 2.51037 28.4627 2.64779C29.0456 3.1005 29.4633 3.8501 29.8023 4.48483C30.9995 6.72584 31.5519 9.29504 31.8909 11.7939C28.7815 9.21961 24.7597 7.08283 20.7179 6.45284C20.5516 6.42709 20.2499 6.59672 20.3372 6.80537C21.077 8.56979 21.8888 10.3117 22.7523 12.0274C20.7823 11.0381 18.8848 9.9152 16.9607 8.8414C16.7351 8.7141 16.5618 9.10338 16.6379 9.27022C17.4865 11.1325 18.6658 12.885 19.9394 14.5469C18.1676 13.3134 16.3192 12.1915 14.4122 11.2442C14.25 11.1638 14.0125 11.2764 13.971 11.4524C13.2445 14.5906 15.7143 19.9643 17.2501 22.7697C13.5777 21.6092 9.52611 20.9193 5.66935 21.1992C5.42323 21.2172 5.54146 21.6041 5.64028 21.7034C8.57739 24.6635 11.8436 27.29 15.1641 29.8016C10.9991 29.1178 6.69044 28.8512 2.49015 29.0782C2.29367 29.0888 2.08903 29.2942 2.22793 29.4785C4.80041 32.8048 8.50951 35.4076 12.3235 37.0891C7.95012 38.0192 3.58442 39.8583 0 42.5675L0.123901 42.8994C4.18774 44.1428 8.44364 44.7126 12.6719 45.008C10.0997 45.9164 4.56235 48.0981 1.9909 47.557C1.77156 47.437 1.46019 47.7335 1.59751 47.9518C1.84497 48.3457 2.20393 48.6803 2.55348 48.9813C3.29815 49.6197 4.06515 50.0474 4.95281 50.5131C4.1253 50.884 3.29814 51.2568 2.49921 51.6672C2.31339 51.7628 2.39053 51.9692 2.55313 52.0386C5.93749 53.3935 9.52579 54.176 13.1527 54.5251C10.5174 56.5119 8.10743 58.9065 6.17811 61.5165C6.06308 61.6723 6.13525 61.8465 6.33748 61.8456C8.73879 61.8236 11.1612 61.5368 13.516 61.0836C12.7504 61.8727 12.0066 62.6871 11.2565 63.5181C10.5344 64.3178 9.70718 65.0413 8.93441 65.7927C8.04333 66.659 7.15225 67.5258 6.26131 68.3922C6.14484 68.5057 6.05162 68.9423 6.34094 68.901C9.66524 68.4276 12.971 67.0731 15.9951 65.6865C16.8721 65.2844 17.7707 64.8555 18.6672 64.4019C17.5907 67.0738 13.9477 69.5725 15.1958 72.7437C15.2955 72.957 15.6099 72.774 15.6562 72.6118C16.2054 70.8339 17.5075 69.2526 18.931 68.1178C18.1276 69.3061 13.135 76.4336 14.6679 77.36C15.0156 77.5525 15.7023 77.4262 16.0633 77.3733C20.1725 76.6817 23.2643 72.8174 25.6135 69.6869C24.0444 73.7332 23.6465 78.1675 24.0881 82.5296C24.127 82.9138 24.519 82.6541 24.5279 82.3825C24.5449 81.8609 25.6793 80.6402 26.1091 80.1461C26.9157 79.2191 27.7833 78.3536 28.6494 77.4841C28.5078 78.6969 28.4211 79.9172 28.404 81.1374C28.4007 81.3732 28.7768 81.3456 28.897 81.2455C30.1 80.2449 31.2443 79.1588 32.3433 78.0278C32.0679 80.682 31.6096 83.3137 31.2155 85.9522L31.5264 86.1627C34.0795 83.5949 36.0721 80.3474 37.8158 77.1711C37.2202 79.1742 36.5358 81.1595 35.5419 83.0007C35.2464 83.538 34.8565 84.3404 34.268 84.6166C34.0513 84.7182 34.064 85.1507 34.3315 85.1705C34.9981 85.2206 35.7275 84.8796 36.2856 84.5629C37.9378 83.6258 39.1746 82.0502 40.172 80.4485C40.4169 82.3577 40.7526 84.2536 41.1627 86.1113C41.2005 86.2823 41.3943 86.3834 41.5151 86.2092C44.4926 81.7403 46.6958 76.676 47.633 71.3791C47.7339 72.1277 47.8784 72.8764 48.0343 73.6092C48.4744 75.6424 49.2799 77.5585 49.7726 79.5652C50.1242 80.9973 50.4439 82.4308 50.953 83.8193C51.1847 84.4512 51.6948 86.3094 52.6348 86.1283C53.5638 85.949 54.0606 84.2425 54.3253 83.5283C55.1801 81.168 55.7461 78.6596 55.9041 76.1535C57.095 78.2413 58.1386 80.4036 59.2158 82.5503C59.32 82.7585 59.5814 82.6551 59.6161 82.4487C60.1465 79.2839 59.912 75.9104 59.538 72.7285C60.7555 73.7896 61.989 74.7062 63.3516 75.5436C63.5938 75.6925 63.6978 75.2573 63.6239 75.1066C63.5728 75.0022 63.5305 74.8928 63.4801 74.788C63.9697 75.272 64.4945 75.7297 64.959 76.1618C66.9779 78.0384 69.2582 79.8244 71.7292 81.0782C71.8821 81.1558 72.2228 81.0474 72.169 80.8304C71.6527 78.7889 71.0261 76.7764 70.3568 74.7807C70.0334 73.8111 69.7033 72.9834 69.4087 71.9757C69.7005 72.0883 69.986 72.2294 70.2821 72.3195C70.4685 72.3765 70.6114 72.1301 70.587 71.9716C70.286 70.0141 69.7681 68.0925 69.0683 66.2523C72.5018 67.7092 76.0481 68.8871 79.7731 69.2387C79.9546 69.253 80.1925 69.0002 80.0651 68.827C78.3811 66.5685 76.5561 64.4146 74.6499 62.341C75.6958 62.5502 76.768 62.6669 77.8652 62.671C80.2061 63.641 82.8225 64.3414 85.3629 64.6294C85.5833 64.6519 85.6506 64.3036 85.5507 64.1606C83.4394 61.1456 81.0494 58.2901 78.5355 55.6037C81.0076 56.2384 83.5222 56.7615 86.0464 57.0772C86.2941 57.108 86.3819 56.7426 86.2532 56.5818C84.6088 54.5218 82.698 52.7257 80.537 51.2338C83.163 50.7977 85.775 50.3189 88.2641 49.3536L88.3605 48.8756C87.127 47.8079 85.8115 46.8473 84.4358 46.003C84.8769 45.9437 85.3515 45.887 85.7975 45.8293L86.0546 45.5531C85.9885 43.7441 84.0596 42.4632 82.5427 41.9567C84.6269 41.1993 86.7363 40.5124 88.824 39.7644C89.0226 39.695 89.0803 39.297 88.8539 39.2285ZM86.5069 35.2718C81.3528 40.1107 74.133 42.6903 67.13 40.9975C67.1011 39.4278 66.8335 37.8592 66.4302 36.3812C69.5725 35.1674 73.1723 34.7496 76.4494 34.5249C77.9261 34.4238 79.3162 34.4334 80.7665 34.7129C82.6485 35.076 84.5882 35.2102 86.5069 35.2718ZM67.143 41.4741C68.3825 41.7127 69.6174 41.9176 70.901 41.9585C69.6268 42.004 68.3614 42.1566 67.1131 42.4172C67.1272 42.1272 67.1448 41.8381 67.1448 41.5449L67.143 41.4741ZM82.8301 30.2184C84.016 30.1628 85.302 30.1017 86.4771 29.797C85.4269 31.1344 84.1493 32.3377 82.8347 33.3869C82.4699 33.6779 82.0799 34.0929 81.5873 34.1292C81.3051 34.1499 80.9513 34.0198 80.6695 33.9605C80.3138 33.8856 79.9721 33.8208 79.6093 33.7914C76.751 33.6451 73.8841 34.0401 71.0744 34.5451C73.9319 33.567 76.6343 32.1535 79.1959 30.5287C79.4741 30.4138 79.7586 30.3292 80.0529 30.3016C80.9742 30.2147 81.9066 30.2621 82.8301 30.2184ZM79.9908 23.6764C81.176 23.6406 82.4262 23.6604 83.5916 23.8097L83.6378 23.9062C83.8625 25.6808 82.6391 27.0315 81.3665 28.164C77.2029 31.7152 71.4967 34.5871 65.981 34.9179C65.5919 33.7155 64.9962 32.5912 64.363 31.5104C68.1954 30.4524 71.2789 27.6482 73.8156 24.6264C74.0527 24.4881 74.3152 24.3695 74.6631 24.2978C76.416 23.9366 78.2017 23.7297 79.9908 23.6764ZM46.5318 22.0638C57.5214 22.0638 66.4302 30.7654 66.4302 41.4994C65.3884 67.2781 27.6712 67.2705 26.6335 41.4992C26.6335 30.7654 35.5423 22.0638 46.5318 22.0638ZM29.7017 30.0047C25.5249 27.2875 22.6855 22.8776 20.6785 18.3671C25.8681 18.7375 30.937 21.462 34.4528 25.2947C32.62 26.6028 31.0006 28.1835 29.7017 30.0047ZM81.7972 17.85C81.2687 19.7967 80.3038 21.4515 79.2408 23.1731C77.6083 23.2339 76.0502 23.4806 74.4316 23.7242C75.117 22.793 76.4302 20.5565 75.4268 19.5115C77.5547 18.7701 79.7325 18.2356 81.7972 17.85ZM75.2085 20.5764C75.0842 23.241 72.0515 25.8066 70.2564 27.573C68.4771 29.2647 66.4291 30.4473 64.1209 31.1087C63.5211 30.0329 62.7285 29.0822 61.903 28.1718C62.8181 26.7089 63.5181 25.1485 64.0393 23.5275C64.8271 22.9204 65.6535 22.3601 66.5437 21.8959C67.8437 21.218 69.2159 20.6922 70.6248 20.2896C71.7163 19.9775 75.2162 18.6162 75.2085 20.5764ZM76.4304 11.7699C76.3927 13.1451 76.0839 14.5473 75.6984 15.8526C75.4092 16.8315 75.0482 18.1092 74.4742 19.0992C74.2194 19.0776 73.9597 19.0795 73.7133 19.1153C71.6458 19.4168 69.5223 20.0695 67.5757 20.9381C68.4991 18.9457 69.5376 17.0663 70.3687 15.0203C72.339 13.7352 74.4257 12.6611 76.4304 11.7699ZM65.2209 13.97C66.6413 12.3408 68.1758 10.8117 69.8399 9.431C70.1891 9.14101 70.8517 8.79215 71.1747 8.41896L71.2658 8.55731C72.2154 10.931 68.3377 18.4357 66.8233 21.2911C65.9185 21.69 65.0793 22.2218 64.2722 22.7843C65.0776 19.9518 65.3496 16.9534 65.2209 13.97ZM63.8063 7.64223C65.2886 14.3212 65.1296 21.8412 61.5174 27.7821C61.15 27.398 60.7899 27.0057 60.3923 26.6514C59.4817 25.8439 58.476 25.1439 57.4274 24.5051C59.4564 21.4947 60.4756 17.975 61.0734 14.3887C61.9489 12.1312 62.9708 9.92372 63.8063 7.64223ZM56.8743 6.21746C57.4808 5.4265 58.1302 4.58219 58.8744 3.9029L59.1651 4.00355C59.3501 4.08766 59.5104 4.21544 59.6596 4.35515C60.614 5.12667 61.5225 8.97492 60.4251 14.5069C60.246 15.6507 59.9815 17.0083 59.6416 18.1373C59.1011 20.4237 58.0102 22.6968 56.9847 24.233C55.1761 23.1161 53.1507 22.4038 51.0266 21.9263C51.155 16.231 53.4155 10.7116 56.8743 6.21746ZM50.0579 10.1802C50.6036 8.42264 51.7988 6.08878 53.9091 5.97204C53.9346 6.72624 53.9776 7.4823 53.9658 8.23606C53.9396 9.90121 52.7509 11.4165 52.1201 12.9396C50.9536 15.7561 50.3127 18.7385 50.1968 21.7686C49.5565 21.6565 48.904 21.5825 48.2447 21.5296C48.2809 21.1583 48.3157 20.7864 48.3709 20.4174L48.364 20.4211C48.6662 19.7942 48.8669 18.3524 48.8968 18.1511C49.2892 15.5074 49.3245 12.7572 50.0579 10.1802ZM47.0455 2.30025C47.655 3.32564 48.124 4.45809 48.4892 5.57999C48.917 6.89445 49.2865 8.33439 49.3634 9.72149C49.403 10.4357 49.1468 11.1375 49.0248 11.8379C48.9076 12.5113 48.8409 13.1896 48.7677 13.8685C48.4853 16.4554 48.4935 19.0941 47.1813 21.4515C46.9728 21.4451 46.7657 21.4327 46.5556 21.4327C45.0649 21.4485 43.5688 21.5921 42.1547 21.8987C40.1863 15.2579 43.4574 7.86836 47.0455 2.30025ZM41.4836 0.685655C42.748 2.31228 43.6027 4.14133 44.3102 6.07543C43.3908 7.85732 42.5883 9.73942 42.0025 11.6679C41.1245 9.92741 40.2512 8.1982 39.1988 6.52354C39.8272 4.47281 40.6283 2.49926 41.4836 0.685655ZM41.4346 11.7699C41.5877 12.0935 41.6599 12.4382 41.6855 12.7935C40.9438 15.7018 40.7531 18.681 41.4722 21.5383C41.5029 21.707 41.5459 21.8725 41.5815 22.0398C41.0843 22.1477 40.599 22.29 40.1218 22.4622C38.837 19.5953 38.0378 16.5382 37.3772 13.4751C36.6193 9.9159 36.0641 6.28687 35.748 2.65737C38.0258 5.40628 39.9196 8.56741 41.4346 11.7699ZM29.9661 3.83394C29.8138 3.57015 29.6428 3.29209 29.4574 3.02596C31.8727 3.9147 34.0183 5.34771 35.7724 7.25294C36.5878 12.4745 37.4547 17.7353 39.5784 22.6418C38.6775 22.971 37.7738 23.2918 36.9579 23.7835C30.7345 17.5865 33.8939 10.8075 29.9661 3.83394ZM21.0546 7.05302C24.1961 7.73078 27.1632 9.09981 29.808 10.91C30.4303 11.3402 31.4259 11.872 31.7898 12.5434C32.1648 13.2361 32.0342 14.3373 32.1391 15.1195C32.5625 18.4712 34.105 21.656 36.4569 24.0763C35.9093 24.3792 35.3541 24.671 34.839 25.0203C32.9624 23.0452 30.7812 21.3633 28.3384 20.1425C27.9347 19.8755 27.6449 19.5717 27.342 19.0873C24.9601 15.2434 22.8372 11.2126 21.0546 7.05302ZM17.5091 9.80698C19.4095 10.8965 21.2891 12.0332 23.2541 12.9957C24.3847 15.2005 25.6105 17.3333 26.889 19.4485C26.3559 19.2252 25.8123 19.0326 25.2651 18.8534C24.112 17.7765 22.8849 16.7603 21.6148 15.7901C20.0731 13.9361 18.6128 11.9418 17.5091 9.80698ZM16.7945 20.5805C15.4751 17.8877 14.2652 14.9265 14.4679 11.8688C17.9175 13.6313 21.1637 15.9215 24.0569 18.5105C22.8061 18.1846 21.5368 17.9511 20.2581 17.8891L20.2033 17.9456C20.1562 17.9429 20.1091 17.9341 20.0619 17.9318C19.8991 17.9236 19.6787 18.1023 19.7555 18.2784C20.9702 21.0617 22.5082 23.8069 24.4561 26.1771C22.5318 24.9072 20.443 23.8842 18.2425 23.1079C18.2005 23.0578 18.1487 23.0229 18.1119 22.964C17.6309 22.1965 17.2017 21.389 16.7945 20.5805ZM14.388 28.5845C11.5825 26.4874 8.8821 24.1976 6.37487 21.7419C14.7204 21.4987 23.499 24.5571 29.163 30.8008C28.3999 31.9157 27.8238 33.1456 27.3247 34.4105C24.3714 31.9312 20.5516 30.8313 16.8299 30.0801C15.9034 29.9081 15.1285 29.1319 14.388 28.5845ZM10.7436 35.7557C7.8951 34.2083 5.05795 32.0881 2.99999 29.5185C10.3767 29.3029 21.2793 30.0557 27.1214 34.9027C26.7538 35.8891 26.5073 36.9048 26.3169 37.9485C22.6691 36.3825 18.5998 35.8633 14.6601 36.3933C14.0965 36.4649 13.4186 36.6933 12.858 36.6841C12.1717 36.6726 11.3251 36.0719 10.7436 35.7557ZM7.57542 44.0612C5.29365 43.7248 2.98146 43.3043 0.764476 42.6392C6.80187 38.3432 14.6107 35.9396 21.9751 37.3615C23.4446 37.6624 24.7483 38.0976 26.1858 38.6283C25.9327 40.3661 25.8708 42.2215 26.1325 43.9702C20.0126 45.0666 13.7164 44.9389 7.57542 44.0612ZM4.67715 49.7323C3.888 49.3238 3.15621 48.8303 2.52714 48.1935C3.37339 48.2344 4.37579 47.9734 5.02207 47.8447C6.99384 47.4517 8.9206 46.8304 10.8139 46.1625C11.9476 45.7627 12.9972 45.2842 14.1366 45.0857C17.3629 45.2202 20.6041 45.1678 23.8122 44.7754C24.6592 44.8104 25.5115 45.0325 26.3322 45.2603C26.3811 45.6946 26.5203 46.1087 26.6335 46.5275C19.5574 45.1859 12.1937 47.5739 5.67804 50.1721C5.36048 50.1496 4.93204 49.8637 4.67715 49.7323ZM12.3719 54.013C9.25962 53.6606 6.17542 52.9701 3.24893 51.8414C9.97532 48.5838 19.3025 45.4764 26.7713 47.0436C26.9846 47.9429 27.3478 48.801 27.7227 49.6385C23.0411 49.0521 18.44 50.8216 14.5781 53.4233C14.3163 53.6017 14.025 53.8986 13.7352 54.0181C13.3395 54.1812 12.766 54.0553 12.3719 54.013ZM12.7645 60.788C10.8257 61.1056 8.84187 61.329 6.8712 61.3681C11.8482 55.0674 19.4891 49.001 27.9591 50.1441C28.4286 51.1743 29.0258 52.146 29.6893 53.0607C29.5369 53.2041 29.3751 53.3374 29.1772 53.4454C26.5918 54.5135 24.0484 56.033 22.132 58.0617C21.1913 58.775 19.7561 59.0838 18.6498 59.4244C16.7237 60.0173 14.7527 60.4622 12.7645 60.788ZM15.5838 65.3101C12.9267 66.5065 10.0543 67.6532 7.14914 68.1877C8.56936 66.83 10.0181 65.4912 11.369 64.0705C12.3814 63.0056 13.3437 61.9334 14.3624 60.9131C16.7665 60.4466 19.0045 59.8197 21.3432 59.0121C20.8287 59.6639 20.3547 60.3441 19.9844 61.0868C19.5628 61.9325 19.2693 62.8287 18.9341 63.7084C17.8125 64.2865 16.6807 64.816 15.5838 65.3101ZM15.4797 71.8094C15.0941 69.8105 17.0922 67.7386 18.1152 66.2431C19.4971 64.2231 19.8628 61.7472 21.3003 59.7599C23.4475 56.7986 26.7302 54.9407 30.0381 53.5351C30.8183 54.5567 31.6847 55.5172 32.6501 56.368C30.9029 61.1139 26.3884 63.7589 21.9922 65.7141C19.3725 66.8787 16.6142 69.0297 15.4797 71.8094ZM20.868 74.2765C19.2691 75.6167 17.1082 77.0602 14.9289 76.8374L14.8281 76.8186C14.8219 76.7937 14.8294 76.7561 14.8252 76.7289C14.825 76.6724 14.8216 76.6117 14.8307 76.5842C15.1105 75.7215 15.3454 74.9199 15.7683 74.0968C16.8199 72.0497 18.1062 70.118 19.4081 68.2235C19.6868 67.8181 19.9296 67.4835 20.2814 67.2022C20.6182 66.9991 20.9604 66.8042 21.3105 66.62C22.9306 65.8649 24.5818 65.1582 26.1029 64.2102C29.0407 62.39 31.7128 59.959 33.0083 56.6604C33.5741 57.1544 34.1546 57.634 34.7963 58.0286C34.6883 58.2786 34.5829 58.4996 34.5223 58.6283C30.8865 60.9227 27.8862 64.1928 26.0259 68.0783C24.9081 70.4131 22.8395 72.5994 20.868 74.2765ZM28.7605 76.6218C28.6635 76.7914 28.5492 76.9578 28.4194 77.1196C27.9343 77.6003 27.4982 78.042 27.1198 78.4391C26.1035 79.3915 25.2663 80.3965 24.4692 81.5355C23.6568 72.0561 27.3768 63.5357 35.7251 58.6472C36.4164 59.0712 37.1394 59.4554 37.8955 59.7553C37.8503 60.0214 37.7891 60.2862 37.7321 60.5509C32.5771 64.3004 29.5913 70.4124 28.7605 76.6218ZM28.9897 80.5225C29.1054 72.7252 32.2636 64.6113 38.9823 60.2218C39.7657 60.5883 40.605 60.7947 41.448 61.0091C40.0563 62.8535 39.1658 65.0876 39.0313 67.405C39.011 67.718 39.0392 68.0512 39.0066 68.3619C38.96 68.8063 38.8044 69.0117 38.5587 69.4093C35.9474 73.5491 32.685 77.3024 28.9897 80.5225ZM37.7059 76.489C36.0794 79.4654 34.0247 82.8219 31.757 85.25C32.1711 82.6554 32.7067 80.0566 32.9062 77.4413C35.2248 75.0022 37.2544 72.3825 39.1088 69.5821C39.0773 71.541 38.7554 73.498 38.288 75.4057C38.0937 75.7684 37.8992 76.1356 37.7059 76.489ZM40.077 79.7048C39.0407 81.5431 37.287 83.7189 35.2399 84.4563C35.9363 83.618 36.3954 82.3563 36.7469 81.5345C38.2243 78.0025 39.2462 74.2285 39.515 70.402C39.5971 68.9649 39.4529 67.5507 39.7383 66.1241C40.1027 64.3171 40.9109 62.6002 42.0796 61.1741C42.4069 61.2488 42.7407 61.2996 43.0735 61.3561C39.6728 66.7655 39.4214 73.5038 40.077 79.7048ZM47.3372 70.5643C46.8015 75.4541 44.2268 81.2113 41.5584 85.3364C39.2751 75.3297 40.4438 66.0474 43.6901 61.4586C44.6354 61.5918 45.5912 61.6437 46.5556 61.6567C46.5578 61.6567 46.56 61.6567 46.5621 61.6567C46.897 62.5713 47.1351 63.5121 47.305 64.4713C47.2183 65.3841 47.175 66.2992 47.1859 67.2161C47.1991 68.3214 47.4232 69.4663 47.3372 70.5643ZM47.5498 63.2097C47.4154 62.6793 47.2502 62.1558 47.0578 61.6346C47.3216 61.6277 47.5848 61.6176 47.846 61.6006C47.7101 62.1108 47.6202 62.678 47.5498 63.2097ZM55.3138 76.7708C54.9992 79.4869 54.4456 82.2625 53.2522 84.7408C53.1391 84.9641 52.9965 85.33 52.7905 85.4936C52.5064 85.7192 52.6234 85.7266 52.3567 85.46C51.8787 84.9825 51.6443 84.0867 51.4237 83.4626C50.9745 82.1909 50.6363 80.8764 50.3481 79.5596C49.9963 77.951 49.3074 76.4123 48.8976 74.8101C47.811 70.5634 47.3545 65.8566 48.512 61.5611C49.3762 61.4963 50.2251 61.3203 51.0579 61.1401C50.6678 65.4565 51.9517 69.7542 53.9667 73.5352C54.5134 74.5647 55.4276 75.5726 55.3138 76.7708ZM59.2673 81.5437C58.3743 79.7233 57.5166 77.8734 56.5361 76.1034C55.2851 73.8449 53.9501 71.7436 53.0967 69.2838C52.1779 66.6202 51.6702 63.7624 51.9776 60.9448C53.0733 60.6527 54.1266 60.2827 55.1461 59.8215C55.3866 60.1483 55.6255 60.4764 55.8359 60.823C55.9007 60.9365 55.9658 61.0569 56.0311 61.1787C56.1066 61.3111 56.1735 61.449 56.2451 61.5836C58.8335 66.3106 59.8099 77.3911 59.2673 81.5437ZM60.9102 73.1748C60.4903 72.8333 59.8704 72.3981 59.4437 71.9114C58.9212 67.7345 58.101 63.1017 55.607 59.5931C56.159 59.3288 56.7026 59.0508 57.2254 58.7405C58.3554 60.5115 59.3244 62.2623 59.9571 64.2525C60.2802 65.3735 60.2637 66.4775 60.4502 67.6113C60.8877 70.0436 61.8585 72.3419 62.8742 74.5844C62.1989 74.1437 61.5371 73.6845 60.9102 73.1748ZM69.7516 74.7444C70.3816 76.5955 70.9594 78.4646 71.4514 80.3575C69.3433 79.1961 67.383 77.6684 65.6204 76.0616C64.7218 75.2421 63.5167 74.3004 62.8808 73.2571C62.3411 72.3714 62.0275 71.182 61.6979 70.2008C61.3838 69.2659 61.1 68.3095 60.9502 67.3328C60.8366 66.5919 60.7953 65.8786 60.6934 65.1607C62.1393 67.055 63.811 68.8551 65.8739 70.0812C66.6514 70.6208 67.4539 71.1259 68.2976 71.5336C68.8216 71.8075 68.9346 72.4353 69.128 72.9749C69.3424 73.5623 69.55 74.1524 69.7516 74.7444ZM70.0499 71.6232C66.7156 70.4374 63.8184 68.1141 61.591 65.4204C60.8806 64.5448 60.4275 63.7208 60.0112 62.677C59.4094 61.1681 58.4921 59.827 57.8401 58.3636C58.7815 57.7551 59.6821 57.088 60.5014 56.3336C65.9171 59.6087 68.9912 65.4668 70.0499 71.6232ZM76.871 65.7187C77.6763 66.6793 78.4564 67.6637 79.2136 68.6638C75.9017 68.2346 72.6749 67.255 69.6374 65.88C68.7335 65.465 68.5566 64.7852 68.1368 63.9529C66.4876 60.6861 64.0344 57.8832 60.909 55.9374C61.4126 55.4567 61.8897 54.952 62.3409 54.4234C64.8559 57.5614 68.0608 60.2313 71.8481 61.6328C72.5303 61.8865 73.4266 61.9876 73.9929 62.4472C75.0717 63.3232 75.9781 64.6538 76.871 65.7187ZM62.6878 54.0236C63.352 53.2324 63.9296 52.3703 64.4551 51.4793C70.1854 52.859 75.3632 57.154 78.5157 62.0832C72.1495 62.324 66.5812 58.8573 62.6878 54.0236ZM84.7931 63.9749C82.8698 63.7171 80.9667 63.1968 79.131 62.5603C79.1954 62.4582 79.2202 62.3295 79.1563 62.2253C78.8013 61.6452 78.4053 61.0854 77.9921 60.5362C74.7706 56.1412 70.105 52.3511 64.7221 51.0013C64.8364 50.7912 64.9394 50.5747 65.0457 50.3597C68.795 52.5507 72.9099 54.0912 77.0928 55.2167C77.4871 55.3983 77.8589 55.612 78.1554 55.9277C80.5305 58.4556 82.7694 61.1507 84.7931 63.9749ZM85.427 56.414C78.4405 55.3227 71.4562 53.4064 65.295 49.8651C65.6532 49.1204 65.9497 48.3457 66.2069 47.5533C73.658 47.4405 80.711 50.6257 85.427 56.414ZM87.6711 48.9965C85.5929 49.7332 83.4358 50.2266 81.2564 50.5426C80.6486 50.6285 80.1452 50.708 79.6183 50.6C79.6126 50.5963 79.6074 50.5922 79.6017 50.5885C75.5993 48.166 71.0116 46.9751 66.3617 47.0349C66.7202 45.7985 66.9454 44.5115 67.0554 43.1912C74.4573 41.6262 81.9057 44.1706 87.6711 48.9965ZM85.4709 45.441C84.1686 45.7252 83.8397 45.3272 82.7678 44.7171C79.4376 42.9566 75.6986 41.9322 71.9239 41.9424C72.8892 41.9189 73.8492 41.8177 74.8033 41.6621C77.1199 41.7007 79.5013 41.5679 81.7445 42.2076C83.2057 42.6241 85.243 43.7138 85.4709 45.441ZM82.2484 41.5081C82.0623 41.583 81.8811 41.6584 81.6964 41.7343C80.1238 41.3339 78.4943 41.2622 76.8674 41.2485C78.8875 40.6974 80.7854 39.848 82.5549 38.7739C84.3301 38.8907 86.0976 39.1278 87.7968 39.5562C85.94 40.1831 84.0605 40.7774 82.2484 41.5081Z" fill="black"/>
</svg>
